# xmcd CD database file
#
# Track frame offsets:
#	150
#	16408
#	41579
#	57872
#	77093
#	92923
#	109718
#	130200
#	148195
#	167486
#	180261
#
# Disc length: 2590 seconds
#
# Revision: 0
# Processed by: cddbd v1.5.2PL0 Copyright (c) Steve Scherf et al.
# Submitted via: CDex 1.70beta2
#
DISCID=890a1c0b
DTITLE=Dixie Dominus - The New Tradition
DYEAR=2009
DGENRE=Jazz
TTITLE0=Big Bear <stomp
TTITLE1=Gospel Medley
TTITLE2=St. James Infirmary
TTITLE3=Supercalifragiliticexpialidocius
TTITLE4=Si Tu Vois Ma Mere
TTITLE5=Yama Yama Man
TTITLE6=Ice Cream
TTITLE7=Savoy Blues
TTITLE8=Big Noise From Winnetka
TTITLE9=Rockin' Robin
TTITLE10=I'll Fly Away
EXTD=YEAR: 2009
EXTT0=
EXTT1=
EXTT2=
EXTT3=
EXTT4=
EXTT5=
EXTT6=
EXTT7=
EXTT8=
EXTT9=
EXTT10=
PLAYORDER=
